<?xml version="1.0" encoding="UTF-8"?>
<svg xmlns="http://www.w3.org/2000/svg" xmlns:xlink="http://www.w3.org/1999/xlink" width="629.67pt" height="464.572pt" viewBox="0 0 629.67 464.572" version="1.1">
<g id="surface1">
<path style=" stroke:none;fill-rule:nonzero;fill:rgb(20.199585%,20.098877%,19.599915%);fill-opacity:1;" d="M 320.375 284.320312 L 307.335938 260.320312 L 294.300781 284.320312 Z M 323.113281 289.402344 L 291.558594 289.402344 L 284.738281 301.96875 L 278.523438 301.96875 L 304.261719 255.171875 L 310.542969 255.171875 L 336.285156 301.96875 L 329.933594 301.96875 Z M 323.113281 289.402344 "/>
<path style=" stroke:none;fill-rule:nonzero;fill:rgb(20.199585%,20.098877%,19.599915%);fill-opacity:1;" d="M 389.503906 255.171875 L 389.503906 301.96875 L 384.558594 301.96875 L 345.25 262.324219 L 345.25 301.96875 L 339.765625 301.96875 L 339.765625 255.171875 L 345.847656 255.171875 L 384.023438 293.746094 L 384.023438 255.171875 Z M 389.503906 255.171875 "/>
<path style=" stroke:none;fill-rule:nonzero;fill:rgb(20.199585%,20.098877%,19.599915%);fill-opacity:1;" d="M 442.996094 289.199219 L 448.34375 291.875 C 443.929688 298.894531 435.777344 303.375 424.339844 303.375 C 406.894531 303.375 396.195312 293.746094 396.195312 278.570312 C 396.195312 263.394531 406.894531 253.765625 424.542969 253.765625 C 435.777344 253.765625 443.929688 258.3125 448.34375 265.265625 L 442.996094 267.941406 C 439.320312 261.722656 432.632812 258.984375 424.476562 258.984375 C 410.902344 258.984375 401.945312 265.667969 401.945312 278.570312 C 401.945312 291.472656 410.902344 298.160156 424.476562 298.160156 C 432.632812 298.160156 439.382812 295.484375 442.996094 289.199219 "/>
<path style=" stroke:none;fill-rule:nonzero;fill:rgb(20.199585%,20.098877%,19.599915%);fill-opacity:1;" d="M 496.484375 289.199219 L 501.832031 291.875 C 497.421875 298.894531 489.265625 303.375 477.832031 303.375 C 460.382812 303.375 449.683594 293.746094 449.683594 278.570312 C 449.683594 263.394531 460.382812 253.765625 478.03125 253.765625 C 489.265625 253.765625 497.421875 258.3125 501.832031 265.265625 L 496.484375 267.941406 C 492.808594 261.722656 486.121094 258.984375 477.964844 258.984375 C 464.394531 258.984375 455.4375 265.667969 455.4375 278.570312 C 455.4375 291.472656 464.394531 298.160156 477.964844 298.160156 C 486.121094 298.160156 492.875 295.484375 496.484375 289.199219 "/>
<path style=" stroke:none;fill-rule:nonzero;fill:rgb(20.199585%,20.098877%,19.599915%);fill-opacity:1;" d="M 552.378906 296.753906 L 552.378906 301.96875 L 507.117188 301.96875 L 507.117188 255.171875 L 551.710938 255.171875 L 551.710938 260.386719 L 512.734375 260.386719 L 512.734375 275.5625 L 545.761719 275.5625 L 545.761719 280.777344 L 512.734375 280.777344 L 512.734375 296.753906 Z M 552.378906 296.753906 "/>
<path style=" stroke:none;fill-rule:nonzero;fill:rgb(20.199585%,20.098877%,19.599915%);fill-opacity:1;" d="M 348.011719 190.144531 C 348.011719 180.34375 340.609375 175.742188 329.210938 175.742188 L 291.40625 175.742188 L 291.40625 204.542969 L 329.210938 204.542969 C 340.609375 204.542969 348.011719 199.945312 348.011719 190.144531 M 356.609375 190.144531 C 356.609375 204.144531 345.910156 212.34375 329.808594 212.34375 L 291.40625 212.34375 L 291.40625 237.945312 L 283.007812 237.945312 L 283.007812 167.941406 L 329.808594 167.941406 C 345.910156 167.941406 356.609375 176.140625 356.609375 190.144531 "/>
<path style=" stroke:none;fill-rule:nonzero;fill:rgb(20.199585%,20.098877%,19.599915%);fill-opacity:1;" d="M 428.910156 203.34375 C 440.210938 203.34375 447.710938 199.042969 447.710938 189.542969 C 447.710938 180.042969 440.210938 175.742188 428.910156 175.742188 L 390.90625 175.742188 L 390.90625 203.34375 Z M 447.507812 237.945312 L 424.308594 211.144531 L 391.007812 211.144531 L 391.007812 237.945312 L 382.503906 237.945312 L 382.503906 167.941406 L 429.507812 167.941406 C 445.109375 167.941406 456.308594 175.742188 456.308594 189.542969 C 456.308594 201.742188 447.507812 209.34375 434.609375 210.84375 L 458.511719 237.945312 Z M 447.507812 237.945312 "/>
<path style=" stroke:none;fill-rule:nonzero;fill:rgb(20.199585%,20.098877%,19.599915%);fill-opacity:1;" d="M 552.707031 230.144531 L 552.707031 237.945312 L 485.003906 237.945312 L 485.003906 167.941406 L 551.707031 167.941406 L 551.707031 175.742188 L 493.40625 175.742188 L 493.40625 198.445312 L 542.808594 198.445312 L 542.808594 206.242188 L 493.40625 206.242188 L 493.40625 230.144531 Z M 552.707031 230.144531 "/>
<path style=" stroke:none;fill-rule:nonzero;fill:rgb(97.599792%,67.498779%,0%);fill-opacity:1;" d="M 158.851562 81.472656 L 158.851562 77.265625 L 163.0625 77.265625 L 163.0625 74.214844 L 158.851562 74.214844 L 158.851562 70.003906 L 155.804688 70.003906 L 155.804688 74.214844 L 151.59375 74.214844 L 151.59375 77.265625 L 155.804688 77.265625 L 155.804688 81.472656 Z M 192.640625 150.722656 L 122.015625 150.722656 L 122.015625 158.957031 L 192.640625 158.957031 Z M 153.972656 135.058594 L 153.972656 106.207031 C 151.863281 105.191406 149.625 104.679688 147.316406 104.679688 C 138.828125 104.679688 131.921875 111.585938 131.921875 120.074219 C 131.921875 127.261719 136.800781 133.410156 143.792969 135.050781 Z M 131.085938 135.058594 C 127.296875 130.957031 125.210938 125.644531 125.210938 120.074219 C 125.210938 114.511719 127.289062 109.203125 131.070312 105.105469 C 129.816406 104.824219 128.546875 104.679688 127.289062 104.679688 C 117.851562 104.679688 110.171875 112.355469 110.171875 121.796875 C 110.171875 126.957031 112.46875 131.789062 116.476562 135.058594 Z M 170.78125 135.058594 C 177.824219 133.417969 182.742188 127.265625 182.742188 120.074219 C 182.742188 111.585938 175.835938 104.679688 167.347656 104.679688 C 165.035156 104.679688 162.792969 105.191406 160.683594 106.210938 L 160.683594 135.058594 Z M 198.1875 135.058594 C 202.191406 131.789062 204.492188 126.957031 204.492188 121.796875 C 204.492188 112.355469 196.8125 104.679688 187.375 104.679688 C 186.117188 104.679688 184.847656 104.824219 183.59375 105.105469 C 187.371094 109.203125 189.453125 114.511719 189.453125 120.074219 C 189.453125 125.644531 187.367188 130.957031 183.574219 135.058594 Z M 116.410156 142.984375 L 116.304688 142.929688 C 108.382812 138.796875 103.460938 130.699219 103.460938 121.796875 C 103.460938 108.65625 114.152344 97.96875 127.289062 97.96875 C 130.847656 97.96875 134.28125 98.746094 137.5 100.277344 C 140.574219 98.746094 143.878906 97.96875 147.316406 97.96875 C 149.578125 97.96875 151.816406 98.3125 153.972656 98.996094 L 153.972656 92.355469 C 153.410156 91.613281 153.113281 90.742188 153.113281 89.835938 C 153.113281 87.515625 155.003906 85.625 157.328125 85.625 C 159.652344 85.625 161.539062 87.515625 161.539062 89.835938 C 161.539062 90.742188 161.246094 91.613281 160.683594 92.355469 L 160.683594 99 C 162.839844 98.3125 165.082031 97.96875 167.347656 97.96875 C 170.785156 97.96875 174.089844 98.746094 177.164062 100.277344 C 180.378906 98.746094 183.816406 97.96875 187.375 97.96875 C 200.511719 97.96875 211.203125 108.65625 211.203125 121.796875 C 211.203125 130.699219 206.28125 138.792969 198.363281 142.929688 L 198.253906 142.984375 Z M 116.410156 142.984375 "/>
<path style=" stroke:none;fill-rule:nonzero;fill:rgb(90.59906%,11.399841%,6.298828%);fill-opacity:1;" d="M 78.242188 177.128906 L 78.242188 283.734375 L 78.238281 283.914062 C 78.230469 284.09375 77.617188 302.554688 87.570312 325.15625 L 87.75 325.566406 L 88.140625 325.339844 C 104.261719 315.820312 104.890625 302.039062 105.757812 282.96875 C 106.523438 266.222656 107.472656 245.386719 119.65625 221.671875 C 129.785156 201.960938 148.316406 186.804688 173.25 177.847656 L 173.113281 177.070312 Z M 82.148438 333.027344 C 69.597656 307.421875 69.925781 286.023438 70.003906 283.667969 L 70.003906 168.894531 L 223.140625 168.804688 L 224.238281 168.800781 L 224.167969 177.042969 L 223.621094 177.042969 C 216.234375 177.113281 150.796875 179.089844 126.984375 225.4375 C 115.621094 247.554688 114.753906 266.566406 113.992188 283.339844 C 113.015625 304.726562 112.171875 323.191406 87.625 334.929688 L 83.941406 336.6875 Z M 82.148438 333.027344 "/>
<path style=" stroke:none;fill-rule:nonzero;fill:rgb(90.59906%,11.399841%,6.298828%);fill-opacity:1;" d="M 211.792969 195.027344 C 211.214844 195.027344 197.476562 195.105469 181.847656 201.875 C 160.5625 211.09375 146.453125 227.734375 139.914062 251.332031 C 135.835938 266.050781 134.980469 279.890625 134.226562 292.101562 C 133.5 303.820312 132.875 313.945312 129.574219 321.996094 C 123.117188 337.75 109.828125 346.769531 102.480469 350.742188 L 102.050781 350.972656 L 102.363281 351.347656 C 115.761719 367.550781 134.21875 379.195312 157.21875 385.964844 L 157.332031 385.996094 L 157.445312 385.964844 C 176.175781 380.417969 189.613281 371.542969 198.09375 365.351562 C 211.4375 355.609375 219.332031 341.910156 222.847656 334.613281 L 223.054688 334.183594 L 222.601562 334.054688 C 214.089844 331.578125 198.621094 324.585938 190.625 305.53125 C 180.554688 281.511719 181.832031 264.59375 184.675781 254.628906 L 185.023438 253.507812 C 187.777344 244.683594 191.992188 240.285156 192.171875 240.101562 L 195.015625 237.179688 L 200.886719 242.84375 L 198.101562 245.824219 C 197.800781 246.140625 195.117188 249.121094 193.085938 255.152344 L 192.964844 255.515625 L 193.324219 255.652344 C 200.917969 258.550781 211.375 267.417969 218.054688 293.207031 L 218.132812 293.507812 L 235.9375 293.507812 L 235.972656 293.148438 C 236.542969 287.460938 236.429688 283.917969 236.425781 283.886719 L 236.425781 195.03125 L 211.972656 195.03125 C 211.976562 195.03125 211.980469 195.03125 211.984375 195.03125 C 211.96875 195.03125 211.898438 195.027344 211.792969 195.027344 M 156.207031 394.246094 C 128.789062 386.445312 107.304688 372.199219 92.351562 351.910156 L 89.25 347.699219 L 94.066406 345.667969 C 97.476562 344.230469 114.855469 336.175781 121.953125 318.871094 C 124.738281 312.078125 125.324219 302.585938 126.003906 291.59375 C 126.785156 278.964844 127.667969 264.671875 131.972656 249.132812 C 140.988281 216.601562 162.289062 201.367188 178.574219 194.316406 C 195.453125 187.003906 210.257812 186.792969 211.890625 186.792969 L 236.425781 186.792969 L 236.421875 168.890625 L 244.664062 168.890625 L 244.664062 283.664062 C 244.679688 284.285156 244.808594 289.871094 243.667969 298.183594 L 243.179688 301.746094 L 211.609375 301.746094 L 210.878906 298.546875 C 209.363281 291.933594 203.507812 269.898438 191.714844 263.957031 L 191.199219 263.699219 L 191.136719 264.273438 C 189.921875 275.425781 192.304688 288.234375 198.222656 302.34375 C 207.40625 324.234375 228.390625 327.011719 229.28125 327.121094 L 234.457031 327.707031 L 232.695312 332.605469 C 232.34375 333.585938 223.855469 356.742188 202.953125 372.003906 C 188.285156 382.714844 174.148438 389.78125 158.460938 394.246094 L 157.332031 394.566406 Z M 156.207031 394.246094 "/>
</g>
</svg>
