<svg width="96" height="96" xmlns="http://www.w3.org/2000/svg" xmlns:xlink="http://www.w3.org/1999/xlink" xml:space="preserve" overflow="hidden"><g transform="translate(-1024 -514)"><path d="M1109.5 589.6 1097 577.1C1095.3 575.4 1093 574.8 1090.8 575.2L1086.4 570.8C1090.3 565.8 1092.6 559.4 1092.6 552.6 1092.6 536.1 1079.1 522.6 1062.6 522.6 1046.1 522.6 1032.6 536.1 1032.6 552.6 1032.6 569.1 1046.1 582.6 1062.6 582.6 1069.4 582.6 1075.7 580.3 1080.8 576.4L1085.2 580.8C1084.8 583 1085.4 585.3 1087.1 587L1099.6 599.5C1101 600.9 1102.8 601.6 1104.6 601.6 1106.4 601.6 1108.2 600.9 1109.6 599.5 1112.2 596.7 1112.2 592.3 1109.5 589.6ZM1062.5 576.5C1049.3 576.5 1038.5 565.7 1038.5 552.5 1038.5 539.3 1049.3 528.5 1062.5 528.5 1075.7 528.5 1086.5 539.3 1086.5 552.5 1086.5 565.7 1075.7 576.5 1062.5 576.5Z"/></g></svg>